<?xml version="1.0" encoding="UTF-8" standalone="no"?>
<!DOCTYPE svg PUBLIC "-//W3C//DTD SVG 1.1//EN" "http://www.w3.org/Graphics/SVG/1.1/DTD/svg11.dtd">
<svg version="1.1" xmlns="http://www.w3.org/2000/svg" xmlns:xlink="http://www.w3.org/1999/xlink" preserveAspectRatio="xMidYMid meet" viewBox="0 0 640 640" width="640" height="640"><defs><path d="M346.23 1.06L359.13 2.37L371.88 4.19L384.46 6.51L396.86 9.31L409.08 12.58L421.1 16.33L432.91 20.52L444.51 25.16L455.88 30.24L467.01 35.74L477.89 41.65L488.51 47.97L498.86 54.68L508.94 61.78L518.72 69.24L528.2 77.07L537.38 85.25L546.23 93.77L554.75 102.62L562.93 111.8L570.76 121.28L578.22 131.06L585.32 141.14L592.03 151.49L598.35 162.11L604.26 172.99L609.76 184.12L614.84 195.49L619.48 207.09L623.67 218.9L627.42 230.92L630.69 243.14L633.49 255.54L635.81 268.12L637.63 280.87L638.94 293.77L639.73 306.82L640 320L639.73 333.18L638.94 346.23L637.63 359.13L635.81 371.88L633.49 384.46L630.69 396.86L627.42 409.08L623.67 421.1L619.48 432.91L614.84 444.51L609.76 455.88L604.26 467.01L598.35 477.89L592.03 488.51L585.32 498.86L578.22 508.94L570.76 518.72L562.93 528.2L554.75 537.38L546.23 546.23L537.38 554.75L528.2 562.93L518.72 570.76L508.94 578.22L498.86 585.32L488.51 592.03L477.89 598.35L467.01 604.26L455.88 609.76L444.51 614.84L432.91 619.48L421.1 623.67L409.08 627.42L396.86 630.69L384.46 633.49L371.88 635.81L359.13 637.63L346.23 638.94L333.18 639.73L320 640L306.82 639.73L293.77 638.94L280.87 637.63L268.12 635.81L255.54 633.49L243.14 630.69L230.92 627.42L218.9 623.67L207.09 619.48L195.49 614.84L184.12 609.76L172.99 604.26L162.11 598.35L151.49 592.03L141.14 585.32L131.06 578.22L121.28 570.76L111.8 562.93L102.62 554.75L93.77 546.23L85.25 537.38L77.07 528.2L69.24 518.72L61.78 508.94L54.68 498.86L47.97 488.51L41.65 477.89L35.74 467.01L30.24 455.88L25.16 444.51L20.52 432.91L16.33 421.1L12.58 409.08L9.31 396.86L6.51 384.46L4.19 371.88L2.37 359.13L1.06 346.23L0.27 333.18L0 320L0.27 306.82L1.06 293.77L2.37 280.87L4.19 268.12L6.51 255.54L9.31 243.14L12.58 230.92L16.33 218.9L20.52 207.09L25.16 195.49L30.24 184.12L35.74 172.99L41.65 162.11L47.97 151.49L54.68 141.14L61.78 131.06L69.24 121.28L77.07 111.8L85.25 102.62L93.77 93.77L102.62 85.25L111.8 77.07L121.28 69.24L131.06 61.78L141.14 54.68L151.49 47.97L162.11 41.65L172.99 35.74L184.12 30.24L195.49 25.16L207.09 20.52L218.9 16.33L230.92 12.58L243.14 9.31L255.54 6.51L268.12 4.19L280.87 2.37L293.77 1.06L306.82 0.27L320 0L333.18 0.27L346.23 1.06ZM67.87 509.45L572.13 509.45L446.07 257.32L319.99 5.19L193.92 257.32L67.87 509.45Z" id="b5D2QZjmip"></path><path d="M487.58 218.09L302.44 566.28L220.56 522.74L405.7 174.55L487.58 218.09Z" id="b1vYA9dMOw"></path></defs><g><g><g><use xlink:href="#b5D2QZjmip" opacity="1" fill="#060606" fill-opacity="1"></use></g><g><use xlink:href="#b1vYA9dMOw" opacity="1" fill="#000000" fill-opacity="1"></use></g></g></g></svg>